# xmcd CD database generated by RipIT
#
# Track frame offsets:
# 150
# 14732
# 29057
# 45097
# 60200
# 84287
# 106015
# 121747
# 138565
# 164035
# 184130
# 204165
#
# Disc length: 2988 seconds
#
# Revision: 4
# Processed by: cddbd v1.5.1PL2 Copyright (c) Steve Scherf et al.
# Submitted via: RipIT 3.4.2.2 www.suwald.com/ripit/ripit.html at Fri Apr 21 21:58:04 CDT 2006
#
DISCID=940baa0c
DTITLE=The Jeff Healey Band - See The Light
DYEAR=1988
DGENRE=Blues
TTITLE0=Confidence Man
TTITLE1=My Little Girl
TTITLE2=River Of No Return
TTITLE3=Don't Let Your Chance Go By
TTITLE4=Angel Eyes
TTITLE5=Nice Problem To Have
TTITLE6=Someday, Someway
TTITLE7=I Need To Be Loved
TTITLE8=Blue Jeans Blues
TTITLE9=That's What They Say
TTITLE10=Hideaway
TTITLE11=See The Light
EXTD=
EXTT0=
EXTT1=
EXTT2=
EXTT3=
EXTT4=
EXTT5=
EXTT6=
EXTT7=
EXTT8=
EXTT9=
EXTT10=
EXTT11=
PLAYORDER=
